<svg id="Layer_1" data-name="Layer 1" xmlns="http://www.w3.org/2000/svg" xmlns:xlink="http://www.w3.org/1999/xlink" viewBox="0 0 2242 917"><defs><style>.cls-1,.cls-7{fill:none;}.cls-2{fill:#e5e8eb;}.cls-3,.cls-5{fill:#fff;}.cls-4{fill:url(#New_Pattern_2);}.cls-5{opacity:0.5;}.cls-6,.cls-8{fill:#3369b3;}.cls-7{stroke:#3369b3;stroke-linecap:round;stroke-linejoin:round;stroke-width:2.5px;}.cls-8{font-size:71.33px;font-family:MyriadPro-Bold, Myriad Pro;font-weight:700;letter-spacing:0.01em;}.cls-9{letter-spacing:0em;}.cls-10{letter-spacing:0.02em;}.cls-11{letter-spacing:0em;}</style><pattern id="New_Pattern_2" data-name="New Pattern 2" width="41.93" height="41.93" patternUnits="userSpaceOnUse" viewBox="0 0 41.93 41.93"><rect class="cls-1" width="41.93" height="41.93"/><rect class="cls-2" x="3.23" y="3.23" width="35.48" height="35.48"/></pattern></defs><title>Background</title><rect class="cls-3" width="2242" height="917"/><rect class="cls-4" width="2242" height="917"/><rect class="cls-5" x="405" y="273" width="1431" height="379"/><rect class="cls-5" x="493" y="358" width="1258" height="209"/><rect class="cls-5" x="451" y="316" width="1343" height="296"/><rect class="cls-3" x="535" y="403" width="1174" height="119"/><rect class="cls-6" x="819.48" y="442.59" width="35.48" height="35.48" transform="translate(1674.44 920.65) rotate(180)"/><rect class="cls-6" x="778" y="442.59" width="35.48" height="35.48" transform="translate(1591.48 920.65) rotate(180)"/><rect class="cls-6" x="819.48" y="402.21" width="35.48" height="35.48" transform="translate(1674.44 839.9) rotate(180)"/><polygon class="cls-7" points="905.03 428.41 885.51 418.76 895.57 384 914.21 398.93 905.03 428.41"/><polygon class="cls-7" points="905.03 428.41 885.51 418.76 858.63 413.97 880.53 423.65 905.03 428.41"/><polygon class="cls-7" points="858.63 413.97 885.51 418.76 895.57 384 867.96 384.56 858.63 413.97"/><rect class="cls-6" x="778" y="402.21" width="35.48" height="35.48" transform="translate(1591.48 839.9) rotate(180)"/><rect class="cls-6" x="860.74" y="442.59" width="35.48" height="35.48" transform="translate(1756.95 920.65) rotate(180)"/><rect class="cls-6" x="819.48" y="484.04" width="35.48" height="35.48" transform="translate(1674.44 1003.55) rotate(180)"/><rect class="cls-6" x="778" y="484.04" width="35.48" height="35.48" transform="translate(1591.48 1003.55) rotate(180)"/><rect class="cls-6" x="860.74" y="484.04" width="35.48" height="35.48" transform="translate(1756.95 1003.55) rotate(180)"/><text class="cls-8" transform="translate(928.13 486.15)">S<tspan class="cls-9" x="39.02" y="0">c</tspan><tspan class="cls-10" x="71.19" y="0">r</tspan><tspan class="cls-11" x="99.57" y="0">y Engineering</tspan></text></svg>