<svg id="Layer_1" data-name="Layer 1" xmlns="http://www.w3.org/2000/svg" xmlns:xlink="http://www.w3.org/1999/xlink" viewBox="0 0 2242 917"><defs><style>.cls-1,.cls-7{fill:none;}.cls-2{fill:#e5e8eb;}.cls-3,.cls-5{fill:#fff;}.cls-4{fill:url(#New_Pattern_2);}.cls-5{opacity:0.5;}.cls-6{fill:#3369b3;}.cls-7{stroke:#3369b3;stroke-linecap:round;stroke-linejoin:round;stroke-width:2.5px;}</style><pattern id="New_Pattern_2" data-name="New Pattern 2" width="41.93" height="41.93" patternUnits="userSpaceOnUse" viewBox="0 0 41.93 41.93"><rect class="cls-1" width="41.93" height="41.93"/><rect class="cls-2" x="3.23" y="3.23" width="35.48" height="35.48"/></pattern></defs><title>Background</title><rect class="cls-3" width="2242" height="917"/><rect class="cls-4" width="2242" height="917"/><rect class="cls-5" x="405" y="273" width="1431" height="379"/><rect class="cls-5" x="493" y="358" width="1258" height="209"/><rect class="cls-5" x="451" y="316" width="1343" height="296"/><rect class="cls-3" x="535" y="403" width="1174" height="119"/><rect class="cls-6" x="819.48" y="442.59" width="35.48" height="35.48" transform="translate(1674.44 920.65) rotate(180)"/><rect class="cls-6" x="778" y="442.59" width="35.48" height="35.48" transform="translate(1591.48 920.65) rotate(180)"/><rect class="cls-6" x="819.48" y="402.21" width="35.48" height="35.48" transform="translate(1674.44 839.9) rotate(180)"/><polygon class="cls-7" points="905.03 428.41 885.51 418.76 895.57 384 914.21 398.93 905.03 428.41"/><polygon class="cls-7" points="905.03 428.41 885.51 418.76 858.63 413.97 880.53 423.65 905.03 428.41"/><polygon class="cls-7" points="858.63 413.97 885.51 418.76 895.57 384 867.96 384.56 858.63 413.97"/><rect class="cls-6" x="778" y="402.21" width="35.48" height="35.48" transform="translate(1591.48 839.9) rotate(180)"/><rect class="cls-6" x="860.74" y="442.59" width="35.48" height="35.48" transform="translate(1756.95 920.65) rotate(180)"/><rect class="cls-6" x="819.48" y="484.04" width="35.48" height="35.48" transform="translate(1674.44 1003.55) rotate(180)"/><rect class="cls-6" x="778" y="484.04" width="35.48" height="35.48" transform="translate(1591.48 1003.55) rotate(180)"/><rect class="cls-6" x="860.74" y="484.04" width="35.48" height="35.48" transform="translate(1756.95 1003.55) rotate(180)"/><path class="cls-6" d="M933.19,475a27.74,27.74,0,0,0,12.06,3c5,0,7.63-2.07,7.63-5.21S950.6,468,944.82,466c-8-2.78-13.2-7.2-13.2-14.19,0-8.2,6.85-14.48,18.19-14.48a29.53,29.53,0,0,1,12.27,2.42l-2.42,8.78a22.84,22.84,0,0,0-10.06-2.28c-4.71,0-7,2.13-7,4.63,0,3.07,2.71,4.42,8.92,6.78C960,460.76,964,465.18,964,472c0,8.06-6.21,14.91-19.4,14.91-5.5,0-10.92-1.43-13.63-2.93Z"/><path class="cls-6" d="M997.67,485.3a26.53,26.53,0,0,1-9.7,1.57c-11.27,0-18.47-6.85-18.47-17.84,0-10.2,7-18.54,20-18.54a25.13,25.13,0,0,1,8.28,1.35L996,459.9a14.83,14.83,0,0,0-6.06-1.07c-5.71,0-9.42,4.07-9.35,9.77,0,6.42,4.29,9.78,9.56,9.78a16.78,16.78,0,0,0,6.21-1.07Z"/><path class="cls-6" d="M1003.66,462.75c0-5.13-.14-8.48-.28-11.48h9.34l.36,6.42h.29a10.23,10.23,0,0,1,9.41-7.2,11.33,11.33,0,0,1,2.28.14v10.2a15.64,15.64,0,0,0-2.92-.29c-4,0-6.71,2.14-7.42,5.5a13,13,0,0,0-.21,2.42v17.69h-10.85Z"/><path class="cls-6" d="M1040.18,451.27l5.21,17.12c.57,2.07,1.28,4.64,1.71,6.49h.22c.5-1.85,1.07-4.49,1.57-6.49l4.28-17.12h11.62l-8.13,23c-5,13.84-8.34,19.4-12.27,22.9a20,20,0,0,1-10.48,4.78l-2.29-9.2a13.76,13.76,0,0,0,4.71-1.86,12.54,12.54,0,0,0,4.5-4.35,2.88,2.88,0,0,0,.57-1.57,3.88,3.88,0,0,0-.5-1.78l-12.77-31.89Z"/><path class="cls-6" d="M1112.73,465.82H1095v11.42h19.76v8.91h-30.68V438.07h29.68V447H1095v10h17.69Z"/><path class="cls-6" d="M1121.86,462.4c0-4.35-.15-8.06-.29-11.13H1131l.5,4.78h.21a12.77,12.77,0,0,1,10.77-5.56c7.13,0,12.49,4.7,12.49,15v20.68h-10.85V466.82c0-4.49-1.57-7.56-5.49-7.56a5.78,5.78,0,0,0-5.49,4.07,7.33,7.33,0,0,0-.43,2.71v20.11h-10.84Z"/><path class="cls-6" d="M1197,451.27c-.14,2.21-.29,5.14-.29,10.34v19.48c0,6.7-1.35,12.2-5.28,15.69-3.85,3.28-9.06,4.28-14.19,4.28-4.57,0-9.42-.93-12.56-2.71l2.14-8.2a21.51,21.51,0,0,0,10.13,2.64c5.14,0,9.06-2.79,9.06-9.21V481.3h-.14a11.15,11.15,0,0,1-9.42,4.57c-8.63,0-14.76-7-14.76-17.05,0-11.2,7.27-18.33,15.83-18.33,4.78,0,7.78,2.06,9.56,4.92h.14l.36-4.14Zm-11.13,14.2a8.17,8.17,0,0,0-.22-2c-.78-2.86-2.85-4.78-5.84-4.78-3.93,0-7.14,3.57-7.14,9.91,0,5.21,2.57,9.28,7.14,9.28a5.89,5.89,0,0,0,5.7-4.42,9.13,9.13,0,0,0,.36-2.86Z"/><path class="cls-6" d="M1216.58,441.57c0,3-2.28,5.42-5.85,5.42a5.3,5.3,0,0,1-5.63-5.42c-.07-3.14,2.21-5.49,5.7-5.49A5.43,5.43,0,0,1,1216.58,441.57Zm-11.2,44.58V451.27h10.84v34.88Z"/><path class="cls-6" d="M1224.92,462.4c0-4.35-.14-8.06-.28-11.13h9.42l.49,4.78h.22a12.77,12.77,0,0,1,10.77-5.56c7.13,0,12.48,4.7,12.48,15v20.68h-10.84V466.82c0-4.49-1.57-7.56-5.49-7.56a5.78,5.78,0,0,0-5.49,4.07,7.33,7.33,0,0,0-.43,2.71v20.11h-10.85Z"/><path class="cls-6" d="M1275.07,472.17c.36,4.5,4.78,6.63,9.85,6.63a30.61,30.61,0,0,0,9.62-1.42l1.43,7.35a34.54,34.54,0,0,1-12.62,2.14c-11.85,0-18.62-6.85-18.62-17.77,0-8.84,5.49-18.61,17.62-18.61,11.27,0,15.55,8.77,15.55,17.4a25.86,25.86,0,0,1-.36,4.28Zm12.77-7.42c0-2.64-1.14-7.06-6.13-7.06-4.57,0-6.43,4.14-6.71,7.06Z"/><path class="cls-6" d="M1312.73,472.17c.36,4.5,4.78,6.63,9.85,6.63a30.67,30.67,0,0,0,9.63-1.42l1.42,7.35a34.51,34.51,0,0,1-12.62,2.14c-11.84,0-18.62-6.85-18.62-17.77,0-8.84,5.49-18.61,17.62-18.61,11.27,0,15.55,8.77,15.55,17.4a24.79,24.79,0,0,1-.36,4.28Zm12.77-7.42c0-2.64-1.14-7.06-6.13-7.06-4.57,0-6.42,4.14-6.71,7.06Z"/><path class="cls-6" d="M1342.05,462.75c0-5.13-.14-8.48-.29-11.48h9.35l.35,6.42h.29a10.23,10.23,0,0,1,9.42-7.2,11.38,11.38,0,0,1,2.28.14v10.2a15.76,15.76,0,0,0-2.93-.29c-4,0-6.7,2.14-7.41,5.5a12.16,12.16,0,0,0-.22,2.42v17.69h-10.84Z"/><path class="cls-6" d="M1380.35,441.57c0,3-2.28,5.42-5.85,5.42a5.3,5.3,0,0,1-5.63-5.42c-.07-3.14,2.21-5.49,5.7-5.49A5.43,5.43,0,0,1,1380.35,441.57Zm-11.2,44.58V451.27H1380v34.88Z"/><path class="cls-6" d="M1388.7,462.4c0-4.35-.15-8.06-.29-11.13h9.42l.5,4.78h.21a12.79,12.79,0,0,1,10.77-5.56c7.14,0,12.49,4.7,12.49,15v20.68H1411V466.82c0-4.49-1.57-7.56-5.49-7.56a5.78,5.78,0,0,0-5.49,4.07,7.33,7.33,0,0,0-.43,2.71v20.11H1388.7Z"/><path class="cls-6" d="M1463.81,451.27c-.14,2.21-.29,5.14-.29,10.34v19.48c0,6.7-1.35,12.2-5.27,15.69-3.86,3.28-9.06,4.28-14.2,4.28-4.57,0-9.42-.93-12.55-2.71l2.13-8.2a21.55,21.55,0,0,0,10.13,2.64c5.14,0,9.06-2.79,9.06-9.21V481.3h-.14a11.15,11.15,0,0,1-9.42,4.57c-8.63,0-14.76-7-14.76-17.05,0-11.2,7.27-18.33,15.83-18.33,4.78,0,7.78,2.06,9.56,4.92h.15l.35-4.14Zm-11.13,14.2a8.71,8.71,0,0,0-.21-2c-.79-2.86-2.86-4.78-5.85-4.78-3.93,0-7.14,3.57-7.14,9.91,0,5.21,2.57,9.28,7.14,9.28a5.89,5.89,0,0,0,5.7-4.42,9.13,9.13,0,0,0,.36-2.86Z"/></svg>