<svg xmlns="http://www.w3.org/2000/svg" xmlns:xlink="http://www.w3.org/1999/xlink" viewBox="0 0 2242 917"><defs><style>.a,.g{fill:none;}.b{fill:#e5e8eb;}.c,.e{fill:#fff;}.d{fill:url(#a);}.e{opacity:0.5;}.f{fill:#3369b3;}.g{stroke:#3369b3;stroke-linecap:round;stroke-linejoin:round;stroke-width:2.5px;}</style><pattern id="a" width="41.93" height="41.93" patternUnits="userSpaceOnUse" viewBox="0 0 41.93 41.93"><rect class="a" width="41.93" height="41.93"/><rect class="b" x="3.23" y="3.23" width="35.48" height="35.48"/></pattern></defs><title>Background</title><rect class="c" width="2242" height="917"/><rect class="d" width="2242" height="917"/><rect class="e" x="405" y="273" width="1431" height="379"/><rect class="e" x="493" y="358" width="1258" height="209"/><rect class="e" x="451" y="316" width="1343" height="296"/><rect class="c" x="535" y="403" width="1174" height="119"/><rect class="f" x="580.48" y="442.59" width="35.48" height="35.48" transform="translate(1196.44 920.65) rotate(180)"/><rect class="f" x="539" y="442.59" width="35.48" height="35.48" transform="translate(1113.48 920.65) rotate(180)"/><rect class="f" x="580.48" y="402.21" width="35.48" height="35.48" transform="translate(1196.44 839.9) rotate(180)"/><polygon class="g" points="666.03 428.41 646.51 418.76 656.57 384 675.21 398.93 666.03 428.41"/><polygon class="g" points="666.03 428.41 646.51 418.76 619.63 413.97 641.53 423.65 666.03 428.41"/><polygon class="g" points="619.63 413.97 646.51 418.76 656.57 384 628.96 384.56 619.63 413.97"/><rect class="f" x="539" y="402.21" width="35.48" height="35.48" transform="translate(1113.48 839.9) rotate(180)"/><rect class="f" x="621.74" y="442.59" width="35.48" height="35.48" transform="translate(1278.95 920.65) rotate(180)"/><rect class="f" x="580.48" y="484.04" width="35.48" height="35.48" transform="translate(1196.44 1003.55) rotate(180)"/><rect class="f" x="539" y="484.04" width="35.48" height="35.48" transform="translate(1113.48 1003.55) rotate(180)"/><rect class="f" x="621.74" y="484.04" width="35.48" height="35.48" transform="translate(1278.95 1003.55) rotate(180)"/><path class="f" d="M729.15,484.8c-2,1-6.5,2.07-12.35,2.07-16.62,0-25.18-10.35-25.18-24,0-16.41,11.7-25.54,26.26-25.54,5.63,0,9.91,1.14,11.84,2.14l-2.22,8.63a23.4,23.4,0,0,0-9.13-1.78c-8.63,0-15.33,5.2-15.33,15.9,0,9.63,5.7,15.7,15.41,15.7a27.22,27.22,0,0,0,9-1.57Z"/><path class="f" d="M767.38,475c0,4.57.14,8.28.28,11.2h-9.41l-.5-4.92h-.22a12.42,12.42,0,0,1-10.91,5.71c-7.06,0-12.27-4.43-12.27-15.2V451.27h10.91V470c0,5.07,1.65,8.13,5.43,8.13a5.85,5.85,0,0,0,5.42-3.78,6.15,6.15,0,0,0,.35-2.35V451.27h10.92Z"/><path class="f" d="M776,476.67a21.18,21.18,0,0,0,9.34,2.63c3.28,0,4.64-1.14,4.64-2.92s-1.07-2.64-5.14-4c-7.2-2.42-10-6.34-9.91-10.48,0-6.49,5.56-11.41,14.19-11.41a23.43,23.43,0,0,1,9.85,2L797.05,460a17.19,17.19,0,0,0-7.56-2c-2.64,0-4.14,1.06-4.14,2.85s1.36,2.5,5.64,4c6.63,2.29,9.41,5.64,9.48,10.77,0,6.5-5.13,11.28-15.12,11.28a24.67,24.67,0,0,1-11.27-2.43Z"/><path class="f" d="M819.16,441.28v10h7.78v8h-7.78v12.63c0,4.2,1,6.13,4.28,6.13a18,18,0,0,0,3.21-.28l.07,8.2a21.22,21.22,0,0,1-7.06.93,11.29,11.29,0,0,1-8.13-3c-2-2.07-3-5.42-3-10.34V459.26H803.9v-8h4.63v-7.56Z"/><path class="f" d="M867.31,468.32c0,12.77-9.06,18.62-18.4,18.62-10.2,0-18-6.71-18-18s7.42-18.47,18.62-18.47C860.18,450.49,867.31,457.83,867.31,468.32Zm-25.25.36c0,6,2.49,10.48,7.13,10.48,4.21,0,6.92-4.21,6.92-10.48,0-5.21-2-10.49-6.92-10.49C844,458.19,842.06,463.54,842.06,468.68Z"/><path class="f" d="M874,462.4c0-4.35-.14-8.06-.28-11.13h9.13l.5,4.71h.21a12.11,12.11,0,0,1,10.56-5.49c4.49,0,8.06,2.28,9.56,5.92h.14a15.49,15.49,0,0,1,4.49-4.21,12.62,12.62,0,0,1,6.64-1.71c6.7,0,11.77,4.7,11.77,15.12v20.54H916.17v-19c0-5.07-1.64-8-5.13-8a5.31,5.31,0,0,0-5,3.78,9.18,9.18,0,0,0-.43,2.78v20.4H895.06V466.61c0-4.43-1.57-7.42-5-7.42a5.51,5.51,0,0,0-5.06,3.92,7.15,7.15,0,0,0-.43,2.71v20.33H874Z"/><path class="f" d="M950.12,438.71a89.27,89.27,0,0,1,14.7-1c6.7,0,11.48,1.28,14.69,3.85a14,14,0,0,1,5.14,11.13c0,4.7-1.57,8.7-4.43,11.41-3.71,3.5-9.2,5.06-15.62,5.06a27.88,27.88,0,0,1-3.71-.21v17.19H950.12Zm10.77,21.83a16.24,16.24,0,0,0,3.64.29c5.78,0,9.35-2.93,9.35-7.85,0-4.42-3.07-7.06-8.49-7.06a18.22,18.22,0,0,0-4.5.43Z"/><path class="f" d="M990.57,462.75c0-5.13-.15-8.48-.29-11.48h9.34l.36,6.42h.29a10.23,10.23,0,0,1,9.41-7.2,11.48,11.48,0,0,1,2.29.14v10.2a15.86,15.86,0,0,0-2.93-.29c-4,0-6.7,2.14-7.42,5.5a13,13,0,0,0-.21,2.42v17.69H990.57Z"/><path class="f" d="M1051.55,468.32c0,12.77-9,18.62-18.4,18.62-10.2,0-18.05-6.71-18.05-18s7.42-18.47,18.62-18.47C1044.42,450.49,1051.55,457.83,1051.55,468.32Zm-25.25.36c0,6,2.5,10.48,7.14,10.48,4.2,0,6.91-4.21,6.91-10.48,0-5.21-2-10.49-6.91-10.49C1028.23,458.19,1026.3,463.54,1026.3,468.68Z"/><path class="f" d="M1091.78,451.27c-.14,2.21-.28,5.14-.28,10.34v19.48c0,6.7-1.36,12.2-5.28,15.69-3.85,3.28-9.06,4.28-14.2,4.28-4.56,0-9.41-.93-12.55-2.71l2.14-8.2a21.48,21.48,0,0,0,10.13,2.64c5.13,0,9.06-2.79,9.06-9.21V481.3h-.15a11.13,11.13,0,0,1-9.41,4.57c-8.63,0-14.77-7-14.77-17.05,0-11.2,7.28-18.33,15.84-18.33,4.78,0,7.77,2.06,9.56,4.92h.14l.36-4.14Zm-11.13,14.2a8.71,8.71,0,0,0-.21-2c-.78-2.86-2.85-4.78-5.85-4.78-3.92,0-7.13,3.57-7.13,9.91,0,5.21,2.57,9.28,7.13,9.28a5.91,5.91,0,0,0,5.71-4.42,9.43,9.43,0,0,0,.35-2.86Z"/><path class="f" d="M1100.2,462.75c0-5.13-.15-8.48-.29-11.48h9.35l.35,6.42h.29a10.23,10.23,0,0,1,9.41-7.2,11.48,11.48,0,0,1,2.29.14v10.2a15.76,15.76,0,0,0-2.93-.29c-4,0-6.7,2.14-7.42,5.5a13,13,0,0,0-.21,2.42v17.69H1100.2Z"/><path class="f" d="M1146.35,486.15l-.64-3.49h-.22a12.57,12.57,0,0,1-10,4.28c-7.07,0-11.27-5.14-11.27-10.7,0-9.06,8.13-13.41,20.47-13.34v-.5c0-1.86-1-4.5-6.35-4.5a19.67,19.67,0,0,0-9.63,2.64l-2-7a28.92,28.92,0,0,1,13.56-3.06c11.62,0,15.33,6.84,15.33,15.05v12.12a54.76,54.76,0,0,0,.5,8.49Zm-1.28-16.48c-5.71-.07-10.13,1.29-10.13,5.5,0,2.78,1.85,4.13,4.28,4.13a5.91,5.91,0,0,0,5.63-4,7.88,7.88,0,0,0,.22-1.85Z"/><path class="f" d="M1164.18,462.4c0-4.35-.14-8.06-.28-11.13H1173l.5,4.71h.21a12.1,12.1,0,0,1,10.56-5.49c4.49,0,8.06,2.28,9.56,5.92h.14a15.49,15.49,0,0,1,4.49-4.21,12.62,12.62,0,0,1,6.64-1.71c6.7,0,11.77,4.7,11.77,15.12v20.54h-10.56v-19c0-5.07-1.64-8-5.14-8a5.3,5.3,0,0,0-5,3.78,8.88,8.88,0,0,0-.43,2.78v20.4h-10.56V466.61c0-4.43-1.56-7.42-5-7.42a5.51,5.51,0,0,0-5.06,3.92,7.15,7.15,0,0,0-.43,2.71v20.33h-10.56Z"/><path class="f" d="M1225.52,462.4c0-4.35-.14-8.06-.28-11.13h9.13l.5,4.71h.21a12.11,12.11,0,0,1,10.56-5.49c4.49,0,8.06,2.28,9.56,5.92h.14a15.49,15.49,0,0,1,4.49-4.21,12.62,12.62,0,0,1,6.64-1.71c6.7,0,11.77,4.7,11.77,15.12v20.54h-10.56v-19c0-5.07-1.64-8-5.13-8a5.32,5.32,0,0,0-5,3.78,9.18,9.18,0,0,0-.43,2.78v20.4h-10.55V466.61c0-4.43-1.57-7.42-5-7.42a5.51,5.51,0,0,0-5.06,3.92,7.15,7.15,0,0,0-.43,2.71v20.33h-10.56Z"/><path class="f" d="M1298.07,441.57c0,3-2.29,5.42-5.85,5.42a5.31,5.31,0,0,1-5.64-5.42c-.07-3.14,2.21-5.49,5.71-5.49A5.44,5.44,0,0,1,1298.07,441.57Zm-11.2,44.58V451.27h10.84v34.88Z"/><path class="f" d="M1306.41,462.4c0-4.35-.14-8.06-.29-11.13h9.42l.5,4.78h.21a12.79,12.79,0,0,1,10.77-5.56c7.14,0,12.49,4.7,12.49,15v20.68h-10.84V466.82c0-4.49-1.57-7.56-5.5-7.56a5.79,5.79,0,0,0-5.49,4.07,7.33,7.33,0,0,0-.43,2.71v20.11h-10.84Z"/><path class="f" d="M1381.52,451.27c-.14,2.21-.28,5.14-.28,10.34v19.48c0,6.7-1.36,12.2-5.28,15.69-3.85,3.28-9.06,4.28-14.2,4.28-4.56,0-9.41-.93-12.55-2.71l2.14-8.2a21.48,21.48,0,0,0,10.13,2.64c5.13,0,9.06-2.79,9.06-9.21V481.3h-.15a11.13,11.13,0,0,1-9.41,4.57c-8.63,0-14.77-7-14.77-17.05,0-11.2,7.28-18.33,15.84-18.33,4.78,0,7.77,2.06,9.56,4.92h.14l.36-4.14Zm-11.13,14.2a8.71,8.71,0,0,0-.21-2c-.78-2.86-2.85-4.78-5.85-4.78-3.92,0-7.13,3.57-7.13,9.91,0,5.21,2.56,9.28,7.13,9.28a5.91,5.91,0,0,0,5.71-4.42,9.43,9.43,0,0,0,.35-2.86Z"/><path class="f" d="M1405.06,475a27.69,27.69,0,0,0,12,3c5,0,7.64-2.07,7.64-5.21s-2.29-4.71-8.06-6.78c-8-2.78-13.2-7.2-13.2-14.19,0-8.2,6.85-14.48,18.19-14.48a29.56,29.56,0,0,1,12.27,2.42l-2.43,8.78a22.8,22.8,0,0,0-10.06-2.28c-4.7,0-7,2.13-7,4.63,0,3.07,2.71,4.42,8.92,6.78,8.49,3.14,12.49,7.56,12.49,14.34,0,8.06-6.21,14.91-19.41,14.91-5.49,0-10.91-1.43-13.62-2.93Z"/><path class="f" d="M1477.81,468.32c0,12.77-9,18.62-18.4,18.62-10.2,0-18.05-6.71-18.05-18s7.42-18.47,18.62-18.47C1470.68,450.49,1477.81,457.83,1477.81,468.32Zm-25.25.36c0,6,2.5,10.48,7.14,10.48,4.2,0,6.92-4.21,6.92-10.48,0-5.21-2-10.49-6.92-10.49C1454.49,458.19,1452.56,463.54,1452.56,468.68Z"/><path class="f" d="M1484.52,435.5h10.84v50.65h-10.84Z"/><path class="f" d="M1537,475c0,4.57.14,8.28.28,11.2h-9.41l-.5-4.92h-.22a12.42,12.42,0,0,1-10.91,5.71c-7.06,0-12.27-4.43-12.27-15.2V451.27h10.91V470c0,5.07,1.64,8.13,5.43,8.13a5.85,5.85,0,0,0,5.42-3.78,6.15,6.15,0,0,0,.35-2.35V451.27H1537Z"/><path class="f" d="M1557.84,441.28v10h7.78v8h-7.78v12.63c0,4.2,1,6.13,4.28,6.13a18,18,0,0,0,3.21-.28l.08,8.2a21.33,21.33,0,0,1-7.07.93,11.29,11.29,0,0,1-8.13-3c-2-2.07-3-5.42-3-10.34V459.26h-4.64v-8h4.64v-7.56Z"/><path class="f" d="M1583.09,441.57c0,3-2.28,5.42-5.84,5.42a5.31,5.31,0,0,1-5.64-5.42c-.07-3.14,2.21-5.49,5.71-5.49A5.43,5.43,0,0,1,1583.09,441.57Zm-11.19,44.58V451.27h10.84v34.88Z"/><path class="f" d="M1625.89,468.32c0,12.77-9.06,18.62-18.4,18.62-10.2,0-18-6.71-18-18s7.42-18.47,18.62-18.47C1618.76,450.49,1625.89,457.83,1625.89,468.32Zm-25.25.36c0,6,2.5,10.48,7.13,10.48,4.21,0,6.92-4.21,6.92-10.48,0-5.21-2-10.49-6.92-10.49C1602.57,458.19,1600.64,463.54,1600.64,468.68Z"/><path class="f" d="M1632.6,462.4c0-4.35-.15-8.06-.29-11.13h9.42l.5,4.78h.21a12.77,12.77,0,0,1,10.77-5.56c7.13,0,12.49,4.7,12.49,15v20.68h-10.85V466.82c0-4.49-1.57-7.56-5.49-7.56a5.78,5.78,0,0,0-5.49,4.07,7.33,7.33,0,0,0-.43,2.71v20.11H1632.6Z"/><path class="f" d="M1674.32,476.67a21.26,21.26,0,0,0,9.35,2.63c3.28,0,4.63-1.14,4.63-2.92s-1.07-2.64-5.13-4c-7.21-2.42-10-6.34-9.92-10.48,0-6.49,5.57-11.41,14.2-11.41a23.41,23.41,0,0,1,9.84,2l-1.92,7.49a17.23,17.23,0,0,0-7.56-2c-2.64,0-4.14,1.06-4.14,2.85s1.35,2.5,5.63,4c6.64,2.29,9.42,5.64,9.49,10.77,0,6.5-5.13,11.28-15.12,11.28a24.64,24.64,0,0,1-11.27-2.43Z"/></svg>